<?xml version="1.0"?>
<svg  stroke-width="0.501" stroke-linejoin="bevel" fill-rule="evenodd" xmlns:xlink="http://www.w3.org/1999/xlink" xmlns="http://www.w3.org/2000/svg" version="1.1" overflow="visible" width="176.25pt" height="225pt" viewBox="0 0 176.25 225">
 <defs>
  <marker id="DefaultArrow2" markerUnits="strokeWidth" viewBox="0 0 1 1" markerWidth="1" markerHeight="1" overflow="visible" orient="auto">
   <!-- REF_ARROW_STRAIGHT (-2) -->
   <g transform="scale(0.0092592592)">
    <!-- 1/108 -->
    <path d="M -9 54 L -9 -54 L 117 0 z"/>
   </g>
  </marker>
  <marker id="DefaultArrow3" markerUnits="strokeWidth" viewBox="0 0 1 1" markerWidth="1" markerHeight="1" overflow="visible" orient="auto">
   <!-- REF_ARROW_ANGLED -->
   <g transform="scale(0.0092592592)">
    <path d="M -27 54 L -9 0 L -27 -54 L 135 0 z"/>
   </g>
  </marker>
  <marker id="DefaultArrow4" markerUnits="strokeWidth" viewBox="0 0 1 1" markerWidth="1" markerHeight="1" overflow="visible" orient="auto">
   <!-- REF_ARROW_ROUNDED -->
   <g transform="scale(0.0092592592)">
    <path d="M -9,0 L -9,-45 C -9,-51.708 2.808,-56.580 9,-54 L 117,-9 C 120.916,-7.369 126.000,-4.242 126,0 C 126,4.242 120.916,7.369 117,9 L 9,54 C 2.808,56.580 -9,51.708 -9,45 z"/>
   </g>
  </marker>
  <marker id="DefaultArrow5" markerUnits="strokeWidth" viewBox="0 0 1 1" markerWidth="1" markerHeight="1" overflow="visible" orient="auto">
   <!-- REF_ARROW_SPOT -->
   <g transform="scale(0.0092592592)">
    <path d="M -54, 0 C -54,29.807 -29.807,54 0,54 C 29.807,54 54,29.807 54,0 C 54,-29.807 29.807,-54 0,-54 C -29.807,-54 -54,-29.807 -54,0 z"/>
   </g>
  </marker>
  <marker id="DefaultArrow6" markerUnits="strokeWidth" viewBox="0 0 1 1" markerWidth="1" markerHeight="1" overflow="visible" orient="auto">
   <!-- REF_ARROW_DIAMOND -->
   <g transform="scale(0.0092592592)">
    <path d="M -63,0 L 0,63 L 63,0 L 0,-63 z"/>
   </g>
  </marker>
  <marker id="DefaultArrow7" markerUnits="strokeWidth" viewBox="0 0 1 1" markerWidth="1" markerHeight="1" overflow="visible" orient="auto">
   <!-- REF_ARROW_FEATHER -->
   <g transform="scale(0.0092592592)">
    <path d="M 18,-54 L 108,-54 L 63,0 L 108,54 L 18, 54 L -36,0 z"/>
   </g>
  </marker>
  <marker id="DefaultArrow8" markerUnits="strokeWidth" viewBox="0 0 1 1" markerWidth="1" markerHeight="1" overflow="visible" orient="auto">
   <!-- REF_ARROW_FEATHER2 -->
   <g transform="scale(0.0092592592)">
    <path d="M -36,0 L 18,-54 L 54,-54 L 18,-18 L 27,-18 L 63,-54 L 99,-54 L 63,-18 L 72,-18 L 108,-54 L 144,-54 L 90,0 L 144,54 L 108,54 L 72,18 L 63,18 L 99,54 L 63,54 L 27,18 L 18,18 L 54,54 L 18,54 z"/>
   </g>
  </marker>
  <marker id="DefaultArrow9" markerUnits="strokeWidth" viewBox="0 0 1 1" markerWidth="1" markerHeight="1" overflow="visible" orient="auto">
   <!-- REF_ARROW_HOLLOWDIAMOND -->
   <g transform="scale(0.0092592592)">
    <path d="M 0,45 L -45,0 L 0, -45 L 45, 0 z M 0, 63 L-63, 0 L 0, -63 L 63, 0 z"/>
   </g>
  </marker>
  <filter id="StainedFilter">
   <feBlend mode="multiply" in2="BackgroundImage" in="SourceGraphic" result="blend"/>
   <feComposite in="blend" in2="SourceAlpha" operator="in" result="comp"/>
  </filter>
  <filter id="BleachFilter">
   <feBlend mode="screen" in2="BackgroundImage" in="SourceGraphic" result="blend"/>
   <feComposite in="blend" in2="SourceAlpha" operator="in" result="comp"/>
  </filter>
  <filter id="InvertTransparencyBitmapFilter">
   <feComponentTransfer>
    <feFuncR type="gamma" amplitude="1.055" exponent=".416666666" offset="-0.055"/>
    <feFuncG type="gamma" amplitude="1.055" exponent=".416666666" offset="-0.055"/>
    <feFuncB type="gamma" amplitude="1.055" exponent=".416666666" offset="-0.055"/>
   </feComponentTransfer>
   <feComponentTransfer>
    <feFuncR type="linear" slope="-1" intercept="1"/>
    <feFuncG type="linear" slope="-1" intercept="1"/>
    <feFuncB type="linear" slope="-1" intercept="1"/>
    <feFuncA type="linear" slope="1" intercept="0"/>
   </feComponentTransfer>
   <feComponentTransfer>
    <feFuncR type="gamma" amplitude="1" exponent="2.4" offset="0"/>
    <feFuncG type="gamma" amplitude="1" exponent="2.4" offset="0"/>
    <feFuncB type="gamma" amplitude="1" exponent="2.4" offset="0"/>
   </feComponentTransfer>
  </filter>
 </defs>
 <g fill="none" stroke="black" font-family="Times New Roman" font-size="16" transform="scale(1 -1)">
  <g transform="translate(0 -225)">
   <g>
    <path d="M 30.59,200.473 C 35.832,205.243 44.197,212.591 50.88,215.283 C 49.455,196.083 49.765,173.171 54.29,153.673 C 52.418,150.1 49.112,144.794 47.39,140.473 C 40.605,157.008 33.476,178.561 30.59,200.473 Z" fill="#712177" stroke="none" stroke-linejoin="miter" stroke-width="0.188" marker-start="none" marker-end="none" stroke-miterlimit="79.8403193612775"/>
    <path d="M 56.644,217.806 C 63.582,220.712 73.003,222.436 80.082,223.337 C 73.816,205.133 68.949,187.564 68.363,167.556 C 65.27,164.931 60.957,161.649 57.024,156.961 C 53.832,175.899 53.457,196.806 56.644,217.806 Z" fill="#712177" stroke="none" stroke-linejoin="miter" stroke-width="0.188" marker-start="none" marker-end="none" stroke-miterlimit="79.8403193612775"/>
    <path d="M 86.269,223.431 C 95.362,224.087 111.112,220.149 119.456,216.212 C 108.3,203.931 98.456,192.024 91.518,176.181 C 84.019,175.149 79.144,173.556 71.793,169.209 C 72.756,188.39 78.633,203.611 86.269,223.431 Z" fill="#712177" stroke="none" stroke-linejoin="miter" stroke-width="0.188" marker-start="none" marker-end="none" stroke-miterlimit="79.8403193612775"/>
    <path d="M 94.979,176.583 C 98.89,184.992 101.504,188.433 105.929,194.433 C 108.563,198.004 112.498,203.367 117.029,202.608 C 119.634,202.172 119.812,196.168 121.529,196.083 C 123.029,196.008 124.767,201.147 124.829,204.033 C 124.904,207.483 124.51,209.017 124.079,211.383 C 123.772,213.066 124.776,213.099 126.254,212.508 C 132.538,209.994 137.243,204.45 139.8,198.493 C 141.902,193.596 143.905,187.189 140.456,178.618 C 139.931,177.312 140.727,176.226 141.675,177.118 C 145.638,180.847 147.425,184.911 148.679,189.558 C 149.19,191.451 149.708,191.96 150.929,190.233 C 154.103,185.744 157.604,180.033 159.179,174.258 C 161.504,165.731 162.29,158.293 160.229,154.533 C 158.954,152.208 156.03,152.921 155.804,151.908 C 155.427,150.218 158.819,148.38 161.599,148.081 C 162.797,147.952 165.001,148.814 165.479,148.383 C 166.243,147.694 166.174,146.359 166.211,145.306 C 166.546,135.886 164.961,126.221 161.643,117.399 C 157.483,106.338 150.206,94.777 142.893,87.307 C 142.239,86.639 141.376,87.21 142.05,88.057 C 145.567,92.476 149.13,98.589 150.997,104.561 C 153.254,111.779 154.413,119.03 153.475,127.116 C 152.301,137.243 150.077,146.452 141.054,156.999 C 136.155,162.725 130.543,167.925 123.827,171.061 C 114.956,175.203 109.323,176.396 94.979,176.583 Z" stroke="none" fill="#191919" stroke-linejoin="miter" stroke-width="0.188" marker-start="none" marker-end="none" stroke-miterlimit="79.8403193612775"/>
    <path d="M 46.601,136.374 C 41.797,140.593 39.921,144.109 33.476,146.101 C 29.251,147.407 22.343,147.624 21.172,145.749 C 19.179,142.936 25.085,139.5 24.219,138.015 C 23.464,136.716 17.882,138.134 15.429,139.655 C 12.496,141.473 11.435,142.457 9.687,144.108 C 8.444,145.283 7.654,144.028 7.343,142.468 C 6.024,135.829 7.756,129.096 11.354,123.704 C 14.313,119.273 18.904,114.836 27.969,113.054 C 29.35,112.782 30.033,111.183 28.789,110.828 C 24.687,109.656 21.289,109.656 17.89,110.828 C 16.04,111.465 14.414,111.503 15.195,109.539 C 17.228,104.43 18.83,100.298 22.812,95.828 C 28.692,89.23 32.514,86.44 36.758,85.867 C 41.094,85.281 44.338,88.105 45.312,87.742 C 46.932,87.137 46.015,83.172 44.258,81.062 C 43.488,80.137 41.625,78.95 41.725,78.315 C 41.887,77.298 43.325,76.815 44.258,76.258 C 52.286,71.465 60.869,67.106 70.156,65.476 C 82.672,62.913 95.881,63.255 106.835,66.297 C 109.229,66.962 108.155,68.321 106.014,67.82 C 100.52,66.535 91.883,67.195 85.156,68.992 C 78.017,70.899 71.618,73.758 65.351,78.953 C 57.502,85.459 51.307,91.93 47.386,105.244 C 45.257,112.473 42.148,123.952 46.601,136.374 Z" stroke="none" fill="#191919" stroke-linejoin="miter" stroke-width="0.188" marker-start="none" marker-end="none" stroke-miterlimit="79.8403193612775"/>
    <path d="M 26.24,195.823 C 21.14,190.273 16.735,183.519 13.64,176.473 C 10.082,168.373 8.138,162.46 7.058,150.76 C 14.336,151.597 17.73,152.005 23.918,151.48 C 33.098,150.7 38.558,148.12 42.59,143.473 C 38.438,154.36 35.846,160.322 33.14,168.973 C 30.381,177.792 27.14,187.423 26.24,195.823 Z" fill="#712177" stroke="none" stroke-linejoin="miter" stroke-width="0.188" marker-start="none" marker-end="none" stroke-miterlimit="79.8403193612775"/>
    <path d="M 56.375,145.006 C 61.426,130.056 67.616,116.254 76.801,104.088 C 85.619,92.409 93.965,83.551 109.211,74.47 C 108.273,74.245 107.224,74.057 106.366,74.031 C 93.475,80.594 82.239,90.155 72.383,100.633 C 63.936,109.614 56.797,120.202 51.406,131.1 C 52.287,135.669 54.387,141.256 56.375,145.006 Z" stroke="none" fill="#191919" stroke-linejoin="miter" stroke-width="0.188" marker-start="none" marker-end="none" stroke-miterlimit="79.8403193612775"/>
    <path d="M 68.54,159.673 C 70.022,143.962 73.724,125.717 81.705,110.884 C 89.151,97.046 97.699,88.007 112.924,75.557 C 112.119,75.368 111.499,75.107 110.654,74.959 C 97.474,82.945 85.933,94.583 77.055,107.359 C 68.453,119.737 61.727,136.97 58.983,148.815 C 60.89,153.059 64.64,156.673 68.54,159.673 Z" stroke="none" fill="#191919" stroke-linejoin="miter" stroke-width="0.188" marker-start="none" marker-end="none" stroke-miterlimit="79.8403193612775"/>
    <path d="M 71.738,162.118 C 76.8,165.268 81.725,167.619 88.136,169.306 C 83.69,152.773 81.769,137.837 88.331,118.524 C 93.71,102.692 103.135,90.011 116.447,76.886 C 115.627,76.418 115.312,76.333 114.361,76.042 C 101.049,86.073 88.436,100.716 81.695,116.748 C 75.863,130.618 71.689,140.267 71.738,162.118 Z" stroke="none" fill="#191919" stroke-linejoin="miter" stroke-width="0.188" marker-start="none" marker-end="none" stroke-miterlimit="79.8403193612775"/>
    <path d="M 43.53,29.752 L 48.239,29.752 L 48.239,36.601 L 51.878,36.601 L 51.939,36.601 L 56.526,29.752 L 62.03,29.752 L 56.801,37.396 C 57.714,37.732 58.514,38.199 59.2,38.798 C 59.885,39.396 60.42,40.13 60.803,41 C 61.186,41.87 61.381,42.881 61.388,44.032 L 61.388,44.093 C 61.385,45.105 61.229,46.024 60.917,46.849 C 60.606,47.674 60.151,48.386 59.553,48.986 C 58.848,49.691 57.972,50.229 56.927,50.599 C 55.881,50.968 54.677,51.154 53.315,51.157 L 43.53,51.157 L 43.53,29.752 Z M 48.239,40.76 L 48.239,46.906 L 52.917,46.906 C 54.075,46.905 54.978,46.648 55.627,46.134 C 56.276,45.621 56.606,44.859 56.617,43.848 L 56.617,43.787 C 56.615,43.182 56.473,42.653 56.191,42.201 C 55.91,41.748 55.5,41.396 54.964,41.144 C 54.427,40.892 53.776,40.764 53.009,40.76 L 48.239,40.76 Z" fill="#000000" stroke="#000000" fill-rule="nonzero" stroke-linejoin="miter" stroke-linecap="square" stroke-width="1.125" marker-start="none" marker-end="none" stroke-miterlimit="79.8403193612775"/>
    <path d="M 65.06,29.752 L 69.769,29.752 L 69.769,51.157 L 65.06,51.157 L 65.06,29.752 Z" fill="#000000" stroke="#000000" fill-rule="nonzero" stroke-linejoin="miter" stroke-linecap="square" stroke-width="1.125" marker-start="none" marker-end="none" stroke-miterlimit="79.8403193612775"/>
    <path d="M 96.087,29.752 L 100.796,29.752 L 100.796,36.296 L 103.273,38.864 L 109.908,29.752 L 115.565,29.752 L 106.453,42.075 L 115.168,51.157 L 109.48,51.157 L 100.796,41.8 L 100.796,51.157 L 96.087,51.157 L 96.087,29.752 Z" fill="#000000" stroke="#000000" fill-rule="nonzero" stroke-linejoin="miter" stroke-linecap="square" stroke-width="1.125" marker-start="none" marker-end="none" stroke-miterlimit="79.8403193612775"/>
    <path d="M 117.613,29.752 L 133.911,29.752 L 133.911,33.941 L 122.291,33.941 L 122.291,38.436 L 132.382,38.436 L 132.382,42.625 L 122.291,42.625 L 122.291,46.967 L 133.758,46.967 L 133.758,51.157 L 117.613,51.157 L 117.613,29.752 Z" fill="#000000" stroke="#000000" fill-rule="nonzero" stroke-linejoin="miter" stroke-linecap="square" stroke-width="1.125" marker-start="none" marker-end="none" stroke-miterlimit="79.8403193612775"/>
    <path d="M 142.286,29.752 L 146.995,29.752 L 146.995,46.815 L 153.508,46.815 L 153.508,51.157 L 135.773,51.157 L 135.773,46.815 L 142.286,46.815 L 142.286,29.752 Z" fill="#000000" stroke="#000000" fill-rule="nonzero" stroke-linejoin="miter" stroke-linecap="square" stroke-width="1.125" marker-start="none" marker-end="none" stroke-miterlimit="79.8403193612775"/>
    <g fill-rule="nonzero" stroke-linejoin="round" stroke-linecap="round" stroke="none" stroke-width="1.875" fill="#712177" stroke-miterlimit="79.8403193612775">
     <g>
      <path d="M 28.602,5.089 C 29.819,5.092 30.889,5.295 31.811,5.698 C 32.734,6.101 33.456,6.69 33.976,7.464 C 34.496,8.238 34.761,9.182 34.77,10.297 L 34.77,10.345 C 34.767,11.313 34.559,12.116 34.146,12.756 C 33.732,13.395 33.13,13.921 32.338,14.334 C 31.546,14.747 30.581,15.097 29.442,15.385 C 28.483,15.626 27.74,15.845 27.212,16.043 C 26.684,16.24 26.317,16.457 26.112,16.695 C 25.907,16.932 25.809,17.232 25.818,17.593 L 25.818,17.641 C 25.818,17.916 25.9,18.163 26.063,18.383 C 26.226,18.603 26.468,18.777 26.789,18.906 C 27.109,19.036 27.506,19.102 27.978,19.105 C 28.686,19.1 29.405,18.953 30.135,18.664 C 30.864,18.374 31.601,17.969 32.346,17.449 L 34.266,20.233 C 33.413,20.92 32.466,21.447 31.425,21.814 C 30.383,22.18 29.25,22.365 28.026,22.369 C 26.873,22.363 25.856,22.151 24.976,21.733 C 24.096,21.315 23.407,20.729 22.908,19.972 C 22.409,19.216 22.155,18.327 22.146,17.305 L 22.146,17.257 C 22.149,16.429 22.28,15.733 22.54,15.169 C 22.8,14.604 23.174,14.135 23.661,13.762 C 24.148,13.389 24.733,13.074 25.416,12.819 C 26.099,12.564 26.865,12.331 27.714,12.121 C 28.412,11.943 28.983,11.774 29.427,11.615 C 29.872,11.456 30.216,11.296 30.459,11.134 C 30.702,10.972 30.871,10.798 30.964,10.612 C 31.058,10.426 31.102,10.217 31.098,9.985 L 31.098,9.937 C 31.091,9.44 30.876,9.053 30.453,8.776 C 30.029,8.499 29.436,8.358 28.674,8.353 C 27.719,8.36 26.832,8.544 26.013,8.905 C 25.193,9.266 24.408,9.762 23.658,10.393 L 21.474,7.777 C 22.15,7.177 22.876,6.678 23.653,6.28 C 24.43,5.882 25.236,5.584 26.071,5.386 C 26.907,5.188 27.75,5.089 28.602,5.089 Z" marker-start="none" marker-end="none"/>
      <path d="M 45.236,5.041 C 46.309,5.044 47.256,5.166 48.077,5.408 C 48.899,5.65 49.636,5.995 50.29,6.442 C 50.943,6.889 51.555,7.422 52.124,8.041 L 49.772,10.417 C 49.337,10.015 48.902,9.667 48.467,9.373 C 48.031,9.08 47.563,8.853 47.061,8.693 C 46.559,8.532 45.991,8.451 45.356,8.449 C 44.633,8.454 43.974,8.594 43.38,8.869 C 42.785,9.144 42.272,9.524 41.84,10.009 C 41.408,10.494 41.075,11.054 40.84,11.689 C 40.606,12.324 40.487,13.004 40.484,13.729 L 40.484,13.777 C 40.487,14.502 40.608,15.179 40.847,15.809 C 41.086,16.439 41.423,16.994 41.858,17.473 C 42.293,17.951 42.807,18.326 43.4,18.596 C 43.993,18.866 44.645,19.004 45.356,19.009 C 46.189,19.003 46.953,18.834 47.648,18.502 C 48.343,18.169 49.011,17.706 49.652,17.113 L 52.004,19.825 C 51.489,20.34 50.92,20.792 50.297,21.179 C 49.673,21.567 48.961,21.869 48.158,22.086 C 47.356,22.303 46.43,22.413 45.38,22.417 C 44.085,22.409 42.903,22.18 41.834,21.731 C 40.766,21.281 39.843,20.659 39.065,19.864 C 38.287,19.068 37.687,18.147 37.263,17.101 C 36.84,16.055 36.625,14.931 36.62,13.729 L 36.62,13.681 C 36.626,12.468 36.843,11.339 37.271,10.296 C 37.699,9.252 38.3,8.338 39.074,7.552 C 39.848,6.766 40.758,6.153 41.804,5.713 C 42.85,5.272 43.994,5.048 45.236,5.041 Z" marker-start="none" marker-end="none"/>
      <path d="M 62.127,5.041 C 63.429,5.049 64.624,5.278 65.712,5.727 C 66.801,6.176 67.746,6.799 68.547,7.594 C 69.348,8.389 69.968,9.31 70.409,10.357 C 70.849,11.403 71.073,12.527 71.079,13.729 L 71.079,13.777 C 71.073,14.979 70.852,16.1 70.416,17.142 C 69.981,18.183 69.366,19.098 68.571,19.888 C 67.776,20.677 66.836,21.294 65.753,21.738 C 64.669,22.183 63.477,22.409 62.175,22.417 C 60.873,22.409 59.678,22.18 58.589,21.731 C 57.501,21.281 56.556,20.659 55.755,19.864 C 54.954,19.068 54.333,18.147 53.893,17.101 C 53.452,16.055 53.229,14.931 53.223,13.729 L 53.223,13.681 C 53.229,12.479 53.45,11.358 53.885,10.316 C 54.321,9.275 54.936,8.359 55.731,7.57 C 56.526,6.781 57.465,6.164 58.549,5.719 C 59.632,5.275 60.825,5.049 62.127,5.041 Z M 62.175,8.449 C 61.428,8.454 60.744,8.594 60.124,8.869 C 59.505,9.144 58.968,9.524 58.515,10.009 C 58.062,10.494 57.711,11.054 57.463,11.689 C 57.216,12.324 57.09,13.004 57.087,13.729 L 57.087,13.777 C 57.09,14.502 57.213,15.179 57.456,15.809 C 57.699,16.439 58.044,16.994 58.491,17.473 C 58.938,17.951 59.469,18.326 60.084,18.596 C 60.699,18.866 61.38,19.004 62.127,19.009 C 62.874,19.004 63.557,18.864 64.177,18.589 C 64.797,18.314 65.333,17.934 65.787,17.449 C 66.24,16.964 66.59,16.404 66.838,15.769 C 67.086,15.134 67.211,14.454 67.215,13.729 L 67.215,13.681 C 67.212,12.956 67.089,12.279 66.846,11.648 C 66.603,11.018 66.258,10.464 65.811,9.985 C 65.364,9.506 64.833,9.132 64.218,8.861 C 63.603,8.591 62.922,8.454 62.175,8.449 Z" marker-start="none" marker-end="none"/>
      <path d="M 76.942,5.329 L 80.638,5.329 L 80.638,18.721 L 85.75,18.721 L 85.75,22.129 L 71.83,22.129 L 71.83,18.721 L 76.942,18.721 L 76.942,5.329 Z" marker-start="none" marker-end="none"/>
      <path d="M 87.956,5.329 L 100.028,5.329 L 100.028,8.689 L 91.652,8.689 L 91.652,22.129 L 87.956,22.129 L 87.956,5.329 Z" marker-start="none" marker-end="none"/>
      <path d="M 100.75,5.329 L 104.518,5.329 L 106.054,9.097 L 113.158,9.097 L 114.694,5.329 L 118.558,5.329 L 111.358,22.249 L 107.95,22.249 L 100.75,5.329 Z M 107.374,12.361 L 109.606,17.809 L 111.838,12.361 L 107.374,12.361 Z" marker-start="none" marker-end="none"/>
      <path d="M 120.526,5.329 L 124.174,5.329 L 124.174,16.009 L 132.31,5.329 L 135.454,5.329 L 135.454,22.129 L 131.806,22.129 L 131.806,11.785 L 123.934,22.129 L 120.526,22.129 L 120.526,5.329 Z" marker-start="none" marker-end="none"/>
      <path d="M 138.862,5.329 L 145.414,5.329 C 146.739,5.336 147.946,5.552 149.036,5.977 C 150.126,6.402 151.066,6.995 151.858,7.756 C 152.649,8.517 153.259,9.406 153.689,10.422 C 154.119,11.438 154.336,12.54 154.342,13.729 L 154.342,13.777 C 154.336,14.966 154.119,16.066 153.689,17.076 C 153.259,18.088 152.649,18.971 151.858,19.726 C 151.066,20.481 150.126,21.068 149.036,21.489 C 147.946,21.909 146.739,22.122 145.414,22.129 L 138.862,22.129 L 138.862,5.329 Z M 142.558,8.665 L 142.558,18.793 L 145.414,18.793 C 146.429,18.785 147.314,18.568 148.071,18.141 C 148.827,17.714 149.416,17.122 149.837,16.364 C 150.257,15.607 150.471,14.728 150.478,13.729 L 150.478,13.681 C 150.471,12.682 150.257,11.808 149.837,11.058 C 149.416,10.308 148.827,9.723 148.071,9.304 C 147.314,8.885 146.429,8.672 145.414,8.665 L 142.558,8.665 Z" marker-start="none" marker-end="none"/>
     </g>
    </g>
    <path d="M 75.131,33.001 C 71.017,37.834 71.602,45.098 76.435,49.211 C 81.268,53.325 88.532,52.74 92.645,47.907 C 93.345,47.083 93.909,46.19 94.34,45.254 L 88.954,42.772 C 88.737,43.247 88.448,43.7 88.088,44.114 C 86.068,46.432 82.546,46.674 80.228,44.654 C 77.91,42.634 77.668,39.112 79.688,36.794 C 81.708,34.476 85.23,34.234 87.548,36.254 C 88.165,36.792 88.636,37.437 88.955,38.138 L 94.34,35.656 C 93.663,34.177 92.66,32.819 91.341,31.697 C 86.508,27.583 79.244,28.168 75.131,33.001 Z" fill="#000000" stroke="#000000" stroke-linejoin="miter" stroke-linecap="square" stroke-width="0.188" marker-start="none" marker-end="none" stroke-miterlimit="79.8403193612775"/>
    <path d="M 22.781,33.001 C 18.667,37.834 19.252,45.098 24.085,49.211 C 28.918,53.325 36.182,52.74 40.295,47.907 C 40.995,47.083 41.559,46.19 41.99,45.254 L 36.604,42.772 C 36.387,43.247 36.098,43.7 35.738,44.114 C 33.718,46.432 30.196,46.674 27.878,44.654 C 25.56,42.634 25.318,39.112 27.338,36.794 C 29.358,34.476 32.88,34.234 35.198,36.254 C 35.815,36.792 36.286,37.437 36.605,38.138 L 41.99,35.656 C 41.313,34.177 40.31,32.819 38.991,31.697 C 34.158,27.583 26.894,28.168 22.781,33.001 Z" fill="#000000" stroke="#000000" stroke-linejoin="miter" stroke-linecap="square" stroke-width="0.188" marker-start="none" marker-end="none" stroke-miterlimit="79.8403193612775"/>
   </g>
  </g>
 </g>
</svg>
