<?xml version="1.0" encoding="utf-8"?>
<!-- Generator: Adobe Illustrator 21.1.0, SVG Export Plug-In . SVG Version: 6.00 Build 0)  -->
<svg version="1.1" id="Layer_1" xmlns="http://www.w3.org/2000/svg" xmlns:xlink="http://www.w3.org/1999/xlink" x="0px" y="0px"
	 viewBox="0 0 216.3 136.8" width="397.635555613" height="251.486564992" enable-background="new 0 0 216.3 136.8" xml:space="preserve">
<g>
	<g>
		<g>
			<path d="M47.5,48.4c0,6.2,12.5,6.2,12.5,3.1C60,43.7,50.7,46.8,47.5,48.4z"/>
			<path d="M69.4,28.3c-4.7-4.6-14-12.3-14-18.5V5.2c-3.1,6.2-4.7,9.3-4.7,13.9c-1.6-1.5-3.1-1.5-3.1-4.6V8.3
				c-3.1,1.5-6.2,6.2-6.2,10.8c0,7.7,4.7,12.3,7.8,18.5c-3.1,1.5-9.4,4.6-14,4.6c-7.8,0-9.4-6.2-9.4-13.9c0-3.1,0-1.5,1.6-6.2
				C21,26.8,16.3,37.6,16.3,40.7C11.7,45.3,8.5,53,8.5,59.2c0,1.5,1.6,3.1,1.6,4.6c-3.9,6.4-1.3,9.6,2.4,13.2h0
				c0.7,0.7,1.5,1.5,2.3,2.2c6.2,4.6,6.2,3.1,14,4.6c14,3.1,23.4,10.8,34.3,10.8h3.1c3.1,0,4.7,0,7.8-1.5l1.6,1.5
				c4.7,3.1,4.7,0,7.8,1.5c1.6,1.5,3.1,4.6,6.2,4.6c1.6,0,0-1.5,4.7-3.1l4.7,7.7c4.7,3.1,7.8,1.5,7.8-4.6l-3.1-6.2l-1.6-6.2
				c-1.6-4.6-3.1-4.6-3.1-10.8l0-0.7h0V73c0-1.5,3.1-3.1,4.7-6.2c-1.6-1.5-1.6-3.1-4.7-3.1c-4.7,0-7.8,7.7-7.8,12.3
				c0,0.2,0,0.5,0.1,0.8h0c0,0,0,0,0,0c0,0,0,0,0,0h0c0.7,4.8,5.7,13-1.6,13l-1.6,3.1c-1.6-1.5,0-1.5,0-4.6l0-11.5l0,0v-2.4
				c-0.2,0.7-0.4,1.5-0.5,2.4l0,0c-1.1,6.2-1.9,14.6-7.3,14.6c1-5,2-9.6,2.6-14.6h0c0.3-2.6,0.5-5.4,0.5-8.6c0-4.6-3.1-7.7-1.6-10.8
				c6.2,0,3.1-4.6,3.1-9.3c0-3.1,0-4.6,1.6-6.2l-3.1-4.6v-4.6c12.5,6.2,1.6,9.3,4.7,23.1c4.7,0,3.1-18.5,4.7-23.1h-1.6l6.2-1.5
				c0,6.2-3.1,12.3-3.1,20.1c7.8-1.5,4.7-20.1,10.9-23.1c3.1-1.5,3.1,6.2,4.7,9.3l1.6-17C92.8,32.9,94.3,28.3,69.4,28.3z M67.8,90
				c-10.9,0-17.2-4.6-26.5-7.7C32.9,79.5,22,82.9,17.6,77h0c-0.5-0.7-0.9-1.5-1.2-2.4c4.7,0,8.4,1.2,11.6,2.4h-0.1
				c3,1.1,5.7,2.2,8.8,2.2c2,0,2.7-0.7,3.4-2h0c0,0,0,0,0-0.1c0-0.1,0.1-0.1,0.1-0.2h0c0.3-0.7,0.7-1.6,1.1-2.4
				c-4.7,1.5-10.9,1.5-15.6-3.1c-4.7-1.5-7.8,0-14,1.5c-3.1-3.1,0-7.7,3.1-10.8h1.6c1.6,0,1.6,0,1.6-1.5h-1.6h-3.1
				c-6.2-1.5,3.1-18.5,4.7-18.5c0-4.6,3.1-10.8,4.7-12.3c1.6,6.2,3.1,13.9,9.4,15.4h4.7c6.2,0,12.5-4.6,21.8-4.6
				c0-9.3-12.5-7.7-12.5-17c0,0,1.6-1.5,3.1-1.5c10.9,0,12.5,15.4,20.3,18.5v-3.1c0-4.6,4.7-4.6,7.8-4.6c6.2,0,0,6.2,0,13.9
				c0,7.7,3.1,12.3,3.1,20.1v1.5c0,2.5,0,5.5-0.4,8.6h0C79,83.5,76.3,90,67.8,90z M80.3,42.2c1.6-1.5,1.6-1.5,3.1,0
				C83.4,51.4,80.3,54.5,80.3,42.2z"/>
		</g>
		<polygon fill="#0066B2" points="152,71.5 205,131.7 114.6,131.7 114.6,5.2 208.2,71.5 		"/>
		<polygon fill="#D1232A" points="119.3,16 191,66.9 139.5,66.9 194.1,125.5 119.3,125.5 		"/>
		<polygon fill="#FFFFFF" points="139.5,86.9 142.7,93.1 147.3,88.5 147.3,94.6 153.6,94.6 148.9,99.3 155.1,102.4 148.9,103.9 
			153.6,110.1 147.3,108.5 147.3,114.7 142.7,111.6 139.5,116.2 138,111.6 131.7,114.7 133.3,108.5 127.1,110.1 130.2,103.9 
			125.5,102.4 130.2,99.3 127.1,94.6 133.3,94.6 131.7,88.5 138,93.1 		"/>
		<path fill="#FFFFFF" d="M139.5,43.7l1.6,3.1l1.6-1.5v3.1h3.1l-3.1,3.1l3.1,1.5h-3.1v1.5c4.7-1.5,7.8-3.1,7.8-7.7v1.5
			c0,7.7-4.7,12.3-12.5,12.3c-7.8,0-12.5-4.6-12.5-12.3v-3.1c0,4.6,3.1,7.7,7.8,9.3V53h-3.1l3.1-1.5l-3.1-3.1h3.1l-1.6-3.1l3.1,1.5
			l1.6-3.1l1.6,1.5L139.5,43.7z"/>
		<path fill="#0066B2" d="M64.7,123.1l3.9,1.3c-0.6,2.4-1.6,4.2-3,5.4c-1.4,1.2-3.2,1.8-5.3,1.8c-2.7,0-4.9-1-6.6-3
			c-1.7-2-2.6-4.8-2.6-8.2c0-3.7,0.9-6.5,2.6-8.6c1.7-2,4-3.1,6.8-3.1c2.5,0,4.5,0.8,6,2.4c0.9,0.9,1.6,2.3,2.1,4.1l-4,1
			c-0.2-1.1-0.7-2-1.5-2.7c-0.8-0.7-1.7-1-2.7-1c-1.5,0-2.7,0.6-3.6,1.8c-0.9,1.2-1.4,3.1-1.4,5.7c0,2.8,0.5,4.8,1.4,6
			c0.9,1.2,2.1,1.8,3.6,1.8c1.1,0,2-0.4,2.8-1.1C63.8,126,64.4,124.8,64.7,123.1"/>
		<path fill="#0066B2" d="M88.8,131.3h-4.4l-1.7-5h-8.1l-1.7,5h-4.3l7.8-22.1h4.3L88.8,131.3z M81.4,122.5l-2.8-8.2l-2.7,8.2H81.4z"
			/>
		<polygon fill="#0066B2" points="89.6,131.3 89.6,109.2 93.5,109.2 101.8,124 101.8,109.2 105.6,109.2 105.6,131.3 101.5,131.3 
			93.4,116.8 93.4,131.3 		"/>
	</g>
</g>
</svg>
